# xmcd CD database file
#
# Track frame offsets:
#	150
#	16136
#	32750
#	52243
#	71060
#	87823
#	104204
#	117100
#	133785
#	147717
#	164941
#
# Disc length: 2379 seconds
#
# Revision: 0
# Processed by: cddbd v1.5PL3 Copyright (c) Steve Scherf et al.
# Submitted via: CDex 1.51
#
DISCID=ac09490b
DTITLE=George Canyon - George Canyon
DYEAR=2004
DGENRE=Country
TTITLE0=George Canyon - My Love's Unchanged
TTITLE1=George Canyon - I'll Burn That Bridge
TTITLE2=George Canyon - Love To Burn
TTITLE3=George Canyon - Scotia Home
TTITLE4=George Canyon - Ironwolf
TTITLE5=George Canyon - The Shaft
TTITLE6=George Canyon - Way Too Much
TTITLE7=George Canyon - Angelyna
TTITLE8=George Canyon - Enough Said
TTITLE9=George Canyon - Her Everything
TTITLE10=George Canyon - Good Day To Ride
EXTD=YEAR: 2004
EXTT0=
EXTT1=
EXTT2=
EXTT3=
EXTT4=
EXTT5=
EXTT6=
EXTT7=
EXTT8=
EXTT9=
EXTT10=
PLAYORDER=
